<svg width="20" height="20" viewBox="0 0 20 20" fill="none" xmlns="http://www.w3.org/2000/svg">
<g clip-path="url(#clip0_1_1409)">
<path d="M20.0001 19.1667C20.0001 19.3877 19.9123 19.5997 19.756 19.756C19.5998 19.9123 19.3878 20 19.1668 20H0.833456C0.612442 20 0.40048 19.9123 0.2442 19.756C0.0879196 19.5997 0.000122245 19.3877 0.000122245 19.1667C0.000122245 18.9457 0.0879196 18.7337 0.2442 18.5775C0.40048 18.4212 0.612442 18.3334 0.833456 18.3334H19.1668C19.3878 18.3334 19.5998 18.4212 19.756 18.5775C19.9123 18.7337 20.0001 18.9457 20.0001 19.1667ZM0.242622 7.12671C0.0630575 6.79365 -0.0201322 6.41713 0.00238927 6.03942C0.0249108 5.66171 0.152252 5.29775 0.370122 4.98838C0.726171 4.46598 1.20299 4.03718 1.76012 3.73838L8.01096 0.485046C8.62534 0.165572 9.30764 -0.0012207 10.0001 -0.0012207C10.6926 -0.0012207 11.3749 0.165572 11.9893 0.485046L18.2393 3.74088C18.7964 4.03968 19.2732 4.46848 19.6293 4.99088C19.8472 5.30025 19.9745 5.66421 19.997 6.04192C20.0195 6.41963 19.9364 6.79615 19.7568 7.12921C19.5635 7.4949 19.2735 7.80055 18.9185 8.01287C18.5635 8.22519 18.1571 8.33605 17.7435 8.33338H17.5001V15H18.3335C18.5545 15 18.7664 15.0878 18.9227 15.2441C19.079 15.4004 19.1668 15.6124 19.1668 15.8334C19.1668 16.0544 19.079 16.2664 18.9227 16.4226C18.7664 16.5789 18.5545 16.6667 18.3335 16.6667H1.66679C1.44578 16.6667 1.23381 16.5789 1.07753 16.4226C0.921253 16.2664 0.833456 16.0544 0.833456 15.8334C0.833456 15.6124 0.921253 15.4004 1.07753 15.2441C1.23381 15.0878 1.44578 15 1.66679 15H2.50012V8.33338H2.25679C1.84275 8.33597 1.43596 8.2248 1.08078 8.01202C0.725599 7.79923 0.435671 7.493 0.242622 7.12671ZM4.16679 15H6.66679V8.33338H4.16679V15ZM8.33346 8.33338V15H11.6668V8.33338H8.33346ZM15.8335 8.33338H13.3335V15H15.8335V8.33338ZM1.71929 6.35421C1.77158 6.45061 1.84938 6.53076 1.94419 6.58588C2.039 6.641 2.14715 6.66897 2.25679 6.66671H17.7435C17.8531 6.66897 17.9612 6.641 18.0561 6.58588C18.1509 6.53076 18.2287 6.45061 18.281 6.35421C18.319 6.29052 18.3375 6.21699 18.3339 6.14286C18.3303 6.06873 18.305 5.9973 18.261 5.93755C18.059 5.63747 17.7878 5.3905 17.4701 5.21755L11.2201 1.96171C10.8435 1.76623 10.4253 1.66419 10.001 1.66419C9.57659 1.66419 9.15845 1.76623 8.78179 1.96171L2.53179 5.21755C2.21428 5.39105 1.94306 5.63826 1.74096 5.93838C1.69686 5.99789 1.67129 6.06907 1.66744 6.14303C1.66358 6.21699 1.68162 6.29045 1.71929 6.35421Z" fill="black"/>
</g>
<defs>
<clipPath id="clip0_1_1409">
<rect width="20" height="20" fill="white"/>
</clipPath>
</defs>
</svg>
