<svg width="35" height="36" viewBox="0 0 35 36" fill="none" xmlns="http://www.w3.org/2000/svg">
<rect y="0.0263672" width="35" height="35" rx="8" fill="#F6F6F6"/>
<g clip-path="url(#clip0_54_221)">
<path d="M22 13.6931C22 12.367 21.4732 11.0953 20.5355 10.1576C19.5979 9.2199 18.3261 8.69312 17 8.69312C15.6739 8.69312 14.4021 9.2199 13.4645 10.1576C12.5268 11.0953 12 12.367 12 13.6931C12 19.5264 9.5 21.1931 9.5 21.1931H24.5C24.5 21.1931 22 19.5264 22 13.6931Z" stroke="black" stroke-width="1.5" stroke-linecap="round" stroke-linejoin="round"/>
<path d="M18.4417 24.5264C18.2952 24.7789 18.0849 24.9886 17.8319 25.1343C17.5789 25.28 17.292 25.3567 17 25.3567C16.708 25.3567 16.4212 25.28 16.1682 25.1343C15.9151 24.9886 15.7049 24.7789 15.5583 24.5264" stroke="black" stroke-width="1.5" stroke-linecap="round" stroke-linejoin="round"/>
</g>
<defs>
<clipPath id="clip0_54_221">
<rect width="20" height="20" fill="white" transform="translate(7 7.02637)"/>
</clipPath>
</defs>
</svg>
