<svg width="28" height="28" viewBox="0 0 28 28" fill="none" xmlns="http://www.w3.org/2000/svg">
<path opacity="0.4" fill-rule="evenodd" clip-rule="evenodd" d="M5.91058 24.5886C5.91058 23.7486 6.59058 23.0686 7.43058 23.0686C8.26058 23.0686 8.94058 23.7486 8.94058 24.5886C8.94058 25.4186 8.26058 26.0986 7.43058 26.0986C6.59058 26.0986 5.91058 25.4186 5.91058 24.5886ZM17.1606 24.5886C17.1606 23.7486 17.8406 23.0686 18.6806 23.0686C19.5106 23.0686 20.1906 23.7486 20.1906 24.5886C20.1906 25.4186 19.5106 26.0986 18.6806 26.0986C17.8406 26.0986 17.1606 25.4186 17.1606 24.5886Z" fill="black"/>
<path fill-rule="evenodd" clip-rule="evenodd" d="M20.1908 10.3491C20.8008 10.3491 21.2008 10.5591 21.6008 11.0191C22.0008 11.4791 22.0708 12.1391 21.9808 12.7381L21.0308 19.2981C20.8508 20.5591 19.7708 21.4881 18.5008 21.4881H7.5908C6.2608 21.4881 5.1608 20.4681 5.0508 19.1491L4.1308 8.24809L2.6208 7.98809C2.2208 7.91809 1.9408 7.52809 2.0108 7.12809C2.0808 6.71809 2.4708 6.44809 2.8808 6.50809L5.2658 6.86809C5.6058 6.92909 5.8558 7.20809 5.8858 7.54809L6.0758 9.78809C6.1058 10.1091 6.3658 10.3491 6.6858 10.3491H20.1908ZM14.1308 15.5481H16.9008C17.3208 15.5481 17.6508 15.2081 17.6508 14.7981C17.6508 14.3781 17.3208 14.0481 16.9008 14.0481H14.1308C13.7108 14.0481 13.3808 14.3781 13.3808 14.7981C13.3808 15.2081 13.7108 15.5481 14.1308 15.5481Z" fill="black"/>
<circle cx="20" cy="8" r="8" fill="#FF3131"/>
<path d="M17.46 5V12H16.74V5.64H15.09V5H17.46ZM25.0833 10.16H23.6833V12H22.9633V10.16H19.0133V9.64L22.7233 5H23.5233L19.9433 9.52H22.9833V7.9H23.6833V9.52H25.0833V10.16Z" fill="white"/>
</svg>
