<svg width="19" height="19" viewBox="0 0 19 19" fill="none" xmlns="http://www.w3.org/2000/svg">
<g clip-path="url(#clip0_1_1653)">
<path d="M17.6794 3.55775C17.4684 3.30458 17.2043 3.10096 16.9058 2.96136C16.6073 2.82176 16.2817 2.7496 15.9522 2.75H3.82615L3.79465 2.48675C3.73019 1.93956 3.46719 1.43505 3.05552 1.06886C2.64385 0.702667 2.11212 0.500256 1.56115 0.5L1.39465 0.5C1.19574 0.5 1.00498 0.579018 0.864323 0.71967C0.723671 0.860322 0.644653 1.05109 0.644653 1.25C0.644653 1.44891 0.723671 1.63968 0.864323 1.78033C1.00498 1.92098 1.19574 2 1.39465 2H1.56115C1.74485 2.00002 1.92216 2.06747 2.05943 2.18954C2.19671 2.31161 2.28441 2.47981 2.3059 2.66225L3.3379 11.4373C3.44504 12.3498 3.88351 13.1913 4.57008 13.802C5.25666 14.4127 6.14354 14.75 7.0624 14.75H14.8947C15.0936 14.75 15.2843 14.671 15.425 14.5303C15.5656 14.3897 15.6447 14.1989 15.6447 14C15.6447 13.8011 15.5656 13.6103 15.425 13.4697C15.2843 13.329 15.0936 13.25 14.8947 13.25H7.0624C6.5982 13.2487 6.14575 13.1038 5.7671 12.8353C5.38846 12.5668 5.10214 12.1877 4.9474 11.75H13.8874C14.7666 11.7501 15.6179 11.4412 16.2925 10.8773C16.9671 10.3135 17.4222 9.53052 17.5782 8.66525L18.1669 5.39975C18.2257 5.07576 18.2125 4.7428 18.1282 4.42448C18.044 4.10616 17.8907 3.81026 17.6794 3.55775ZM16.6947 5.1335L16.1052 8.399C16.0115 8.91875 15.738 9.38899 15.3326 9.7274C14.9271 10.0658 14.4155 10.2508 13.8874 10.25H4.7089L4.00315 4.25H15.9522C16.0623 4.24934 16.1713 4.27297 16.2713 4.31919C16.3713 4.36542 16.4599 4.43311 16.5308 4.51746C16.6017 4.6018 16.6531 4.70073 16.6814 4.8072C16.7098 4.91368 16.7143 5.02508 16.6947 5.1335Z" fill="white"/>
<path d="M5.89477 18.5005C6.7232 18.5005 7.39477 17.8289 7.39477 17.0005C7.39477 16.1721 6.7232 15.5005 5.89477 15.5005C5.06635 15.5005 4.39478 16.1721 4.39478 17.0005C4.39478 17.8289 5.06635 18.5005 5.89477 18.5005Z" fill="white"/>
<path d="M13.3947 18.5005C14.2231 18.5005 14.8946 17.8289 14.8946 17.0005C14.8946 16.1721 14.2231 15.5005 13.3947 15.5005C12.5662 15.5005 11.8947 16.1721 11.8947 17.0005C11.8947 17.8289 12.5662 18.5005 13.3947 18.5005Z" fill="white"/>
</g>
<defs>
<clipPath id="clip0_1_1653">
<rect width="18" height="18" fill="white" transform="translate(0.644653 0.5)"/>
</clipPath>
</defs>
</svg>
