<svg width="36" height="35" viewBox="0 0 36 35" fill="none" xmlns="http://www.w3.org/2000/svg">
<rect x="0.5" width="35" height="35" rx="8" fill="#F6F6F6"/>
<path opacity="0.4" fill-rule="evenodd" clip-rule="evenodd" d="M13.4255 24.157C13.4255 23.457 13.9922 22.8904 14.6922 22.8904C15.3839 22.8904 15.9505 23.457 15.9505 24.157C15.9505 24.8487 15.3839 25.4154 14.6922 25.4154C13.9922 25.4154 13.4255 24.8487 13.4255 24.157ZM22.8005 24.157C22.8005 23.457 23.3672 22.8904 24.0672 22.8904C24.7589 22.8904 25.3255 23.457 25.3255 24.157C25.3255 24.8487 24.7589 25.4154 24.0672 25.4154C23.3672 25.4154 22.8005 24.8487 22.8005 24.157Z" fill="black"/>
<path fill-rule="evenodd" clip-rule="evenodd" d="M25.3257 12.2908C25.834 12.2908 26.1674 12.4658 26.5007 12.8491C26.834 13.2325 26.8924 13.7824 26.8174 14.2816L26.0257 19.7483C25.8757 20.7991 24.9757 21.5733 23.9174 21.5733H14.8257C13.7174 21.5733 12.8007 20.7233 12.709 19.6241L11.9424 10.5399L10.684 10.3233C10.3507 10.2649 10.1174 9.93995 10.1757 9.60662C10.234 9.26495 10.559 9.03995 10.9007 9.08995L12.8882 9.38995C13.1715 9.44078 13.3799 9.67328 13.4049 9.95662L13.5632 11.8233C13.5882 12.0908 13.8049 12.2908 14.0715 12.2908H25.3257ZM20.2757 16.6233H22.584C22.934 16.6233 23.209 16.34 23.209 15.9983C23.209 15.6483 22.934 15.3733 22.584 15.3733H20.2757C19.9257 15.3733 19.6507 15.6483 19.6507 15.9983C19.6507 16.34 19.9257 16.6233 20.2757 16.6233Z" fill="black"/>
</svg>
