<svg width="48" height="48" viewBox="0 0 48 48" fill="none" xmlns="http://www.w3.org/2000/svg">
<circle cx="24" cy="24" r="22" fill="black" stroke="white" stroke-width="4"/>
<g clip-path="url(#clip0_1_1440)">
<path d="M32.1398 15.861C31.6299 15.3519 30.9388 15.0659 30.2183 15.0659C29.4977 15.0659 28.8066 15.3519 28.2968 15.861L16.0988 28.059C15.7494 28.4063 15.4725 28.8195 15.2839 29.2746C15.0953 29.7296 14.9988 30.2176 15 30.7102V32.25C15 32.4489 15.079 32.6396 15.2197 32.7803C15.3603 32.9209 15.5511 33 15.75 33H17.2898C17.7823 33.0014 18.2703 32.905 18.7254 32.7166C19.1805 32.5281 19.5937 32.2512 19.941 31.902L32.1398 19.7032C32.6486 19.1934 32.9344 18.5024 32.9344 17.7821C32.9344 17.0617 32.6486 16.3708 32.1398 15.861ZM18.8805 30.8415C18.4575 31.2617 17.886 31.4982 17.2898 31.5H16.5V30.7102C16.4993 30.4146 16.5571 30.1219 16.6703 29.8488C16.7835 29.5757 16.9496 29.3279 17.1593 29.1195L26.4165 19.8622L28.1415 21.5872L18.8805 30.8415ZM31.0785 18.6427L29.199 20.523L27.474 18.8017L29.3543 16.9215C29.4675 16.8084 29.6019 16.7188 29.7498 16.6578C29.8977 16.5967 30.0562 16.5654 30.2162 16.5655C30.3762 16.5657 30.5346 16.5974 30.6824 16.6588C30.8301 16.7202 30.9644 16.8101 31.0774 16.9233C31.1904 17.0366 31.28 17.171 31.3411 17.3189C31.4022 17.4668 31.4335 17.6253 31.4333 17.7853C31.4331 17.9453 31.4015 18.1037 31.3401 18.2515C31.2787 18.3992 31.1888 18.5334 31.0755 18.6465L31.0785 18.6427Z" fill="white"/>
</g>
<defs>
<clipPath id="clip0_1_1440">
<rect width="18" height="18" fill="white" transform="translate(15 15)"/>
</clipPath>
</defs>
</svg>
