<svg width="50" height="50" viewBox="0 0 50 50" fill="none" xmlns="http://www.w3.org/2000/svg">
<rect width="50" height="50" rx="8" fill="#B29954"/>
<g clip-path="url(#clip0_56_277)">
<path d="M18.1287 17.1762H13.7059C13.316 17.1762 13 16.86 13 16.4703C13 16.0806 13.316 15.7644 13.7059 15.7644H18.1287C18.5186 15.7644 18.8346 16.0806 18.8346 16.4703C18.8346 16.86 18.5186 17.1762 18.1287 17.1762Z" fill="white"/>
<path d="M20.6561 19.7034C18.8732 19.7034 17.4229 18.253 17.4229 16.4703C17.4229 14.6872 18.8732 13.2368 20.6561 13.2368C22.439 13.2368 23.8894 14.6872 23.8894 16.4703C23.8894 18.2531 22.439 19.7034 20.6561 19.7034ZM20.6561 14.6486C19.6517 14.6486 18.8346 15.4659 18.8346 16.4703C18.8346 17.4747 19.6517 18.2916 20.6561 18.2916C21.6605 18.2916 22.4776 17.4747 22.4776 16.4703C22.4776 15.4659 21.6605 14.6486 20.6561 14.6486Z" fill="white"/>
<path d="M36.2942 17.1762H25.7442C25.3543 17.1762 25.0383 16.86 25.0383 16.4703C25.0383 16.0806 25.3543 15.7644 25.7442 15.7644H36.2942C36.6841 15.7644 37.0001 16.0806 37.0001 16.4703C37.0001 16.86 36.6841 17.1762 36.2942 17.1762Z" fill="white"/>
<path d="M30.1337 28.2333C28.3507 28.2333 26.9004 26.7829 26.9004 25.0002C26.9004 23.2175 28.3508 21.7671 30.1337 21.7671C31.9165 21.7671 33.3669 23.2175 33.3669 25.0002C33.3669 26.7829 31.9166 28.2333 30.1337 28.2333ZM30.1337 23.1789C29.1293 23.1789 28.3121 23.9958 28.3121 25.0002C28.3121 26.0046 29.1293 26.8215 30.1337 26.8215C31.1381 26.8215 31.9552 26.0046 31.9552 25.0002C31.9552 23.9958 31.1381 23.1789 30.1337 23.1789Z" fill="white"/>
<path d="M25.0458 25.7059H13.7059C13.316 25.7059 13 25.3897 13 25.0001C13 24.6104 13.316 24.2942 13.7059 24.2942H25.0458C25.4357 24.2942 25.7517 24.6104 25.7517 25.0001C25.7517 25.3897 25.4357 25.7059 25.0458 25.7059Z" fill="white"/>
<path d="M36.294 25.7059H32.661C32.2711 25.7059 31.9551 25.3897 31.9551 25.0001C31.9551 24.6104 32.2711 24.2942 32.661 24.2942H36.294C36.6839 24.2942 36.9999 24.6104 36.9999 25.0001C36.9999 25.3897 36.6839 25.7059 36.294 25.7059Z" fill="white"/>
<path d="M19.8663 36.7632C18.0834 36.7632 16.6331 35.3128 16.6331 33.5297C16.6331 31.747 18.0834 30.2966 19.8663 30.2966C21.6492 30.2966 23.0996 31.747 23.0996 33.5297C23.0996 35.3128 21.6492 36.7632 19.8663 36.7632ZM19.8663 31.7084C18.8619 31.7084 18.0448 32.5253 18.0448 33.5297C18.0448 34.5341 18.8619 35.3514 19.8663 35.3514C20.8707 35.3514 21.6878 34.5341 21.6878 33.5297C21.6878 32.5253 20.8707 31.7084 19.8663 31.7084Z" fill="white"/>
<path d="M36.2941 34.2357H24.9542C24.5643 34.2357 24.2483 33.9195 24.2483 33.5298C24.2483 33.1402 24.5643 32.824 24.9542 32.824H36.2941C36.684 32.824 37 33.1402 37 33.5298C37 33.9195 36.684 34.2357 36.2941 34.2357Z" fill="white"/>
<path d="M17.339 34.2358H13.7059C13.316 34.2358 13 33.9196 13 33.5298C13 33.1402 13.316 32.824 13.7059 32.824H17.339C17.7289 32.824 18.0448 33.1402 18.0448 33.5298C18.0448 33.9196 17.7289 34.2358 17.339 34.2358Z" fill="white"/>
</g>
<defs>
<clipPath id="clip0_56_277">
<rect width="24" height="24" fill="white" transform="translate(13 13)"/>
</clipPath>
</defs>
</svg>
