<svg width="40" height="40" viewBox="0 0 40 40" fill="none" xmlns="http://www.w3.org/2000/svg">
<rect width="40" height="40" rx="8" fill="black"/>
<path d="M17.1437 28.7821V25.7152C17.1437 24.9381 17.7757 24.3067 18.5584 24.3018H21.4326C22.2189 24.3018 22.8563 24.9346 22.8563 25.7152V28.7732C22.8562 29.4473 23.404 29.9951 24.0829 30H26.0438C26.9596 30.0023 27.8388 29.6428 28.4872 29.0007C29.1356 28.3586 29.5 27.4868 29.5 26.5775V17.8658C29.5 17.1314 29.1721 16.4347 28.6046 15.9635L21.943 10.6743C20.7785 9.74912 19.1154 9.77901 17.9854 10.7454L11.467 15.9635C10.8727 16.4208 10.5176 17.1196 10.5 17.8658V26.5686C10.5 28.4637 12.0474 30 13.9562 30H15.8723C16.1992 30.0023 16.5135 29.8751 16.7455 29.6464C16.9775 29.4178 17.1079 29.1067 17.1079 28.7821H17.1437Z" fill="white"/>
</svg>
