<svg width="62" height="40" viewBox="0 0 62 40" fill="none" xmlns="http://www.w3.org/2000/svg">
<path d="M16.7599 37.5172C12.4351 33.5414 6.42552 28.473 5.99903 28.4416C5.7048 28.4199 4.49379 29.9362 2.82365 32.4175C1.33875 34.6235 0.0711104 36.2702 0.00665933 36.0768C-0.0577917 35.8835 0.352954 35.0241 0.919439 34.167C2.92242 31.1366 3.09904 30.8333 2.72766 31.0622C1.84934 31.6035 2.44314 30.4876 3.52717 29.5597C4.60104 28.6405 9.72035 22.3369 11.245 20.0564C11.5961 19.5313 12.9834 17.9298 14.328 16.4975L16.7725 13.8934L16.6912 7.79299L16.6099 1.69261L15.4843 1.59945C14.5131 1.51908 14.3587 1.40475 14.3587 0.766201V0.026113L18.9361 0.108972C23.2857 0.187707 23.5135 0.221695 23.5135 0.792142C23.5135 1.26739 23.2633 1.42372 22.3129 1.54253L21.1122 1.69261L21.0302 7.22748C20.9851 10.2717 21.0432 12.6674 21.1592 12.5513C21.2753 12.4352 22.6894 9.94451 24.3017 7.01642L27.2331 1.69261L26.0401 1.54253C24.8692 1.39524 24.8559 1.37989 25.3229 0.717101C25.7645 0.0902215 26.0237 0.0417492 28.9333 0.0417492C30.6574 0.0417492 32.0679 0.118166 32.0679 0.211563C32.0679 0.936026 31.337 1.54253 30.4639 1.54253C29.9234 1.54253 29.2653 1.71137 29.0013 1.91773C28.5064 2.30466 24.2639 9.73336 24.2639 10.213C24.2639 10.361 24.5714 10.5593 24.9473 10.6537C25.9744 10.9114 27.986 12.7552 30.1089 15.3846L32.007 17.7355L32.9121 16.3441C33.6797 15.164 33.7697 14.8346 33.5044 14.1757C32.9962 12.9134 33.1083 9.0745 33.7024 7.39558C35.3306 2.79429 40.1233 -0.293708 44.9571 0.143893C46.4477 0.278828 47.5225 0.627252 49.384 1.57892C51.7503 2.78871 51.8703 2.81741 52.5901 2.34577C53.0239 2.06151 53.378 1.50651 53.4335 1.02381C53.5021 0.426215 53.7194 0.164807 54.2045 0.0959125L54.8798 0V4.82337C54.8798 9.39776 54.9099 9.64675 55.4624 9.64675C56.5755 9.64675 56.573 10.9487 55.4593 11.2399C54.9189 11.3812 54.8797 11.698 54.8797 15.9219C54.8797 18.4137 54.981 20.4492 55.1048 20.4453C55.2286 20.4414 56.1968 19.125 57.2564 17.5201C58.3159 15.9152 59.2369 14.7641 59.3029 14.9622C59.45 15.4035 57.7677 17.9256 54.0772 22.7964C52.5376 24.8284 51.2778 26.5551 51.2778 26.6334C51.2778 26.7117 52.1606 26.1075 53.2395 25.2907C55.3975 23.6571 56.4814 22.3863 59.5424 17.9011C60.669 16.2502 61.6341 14.8432 61.687 14.7744C61.74 14.7056 61.8717 14.7378 61.9798 14.8459C62.2412 15.1073 59.9374 18.5576 56.4826 23.0787C54.9372 25.1011 53.7346 26.7557 53.8101 26.7557C53.8857 26.7557 54.8397 26.0803 55.9303 25.2549C58.3603 23.4156 59.8069 23.1857 58.6617 24.8208C58.3364 25.2851 58.3205 25.529 58.5912 25.8991C58.8991 26.3202 59.1006 26.24 60.2748 25.2286C62.5032 23.3094 62.0821 24.2624 59.6822 26.5698C58.4441 27.7603 56.6619 29.7411 55.7219 30.9716C53.3384 34.0918 48.9093 38.7266 48.8912 38.1196C48.8685 37.357 51.385 34.1015 54.4272 30.9579C58.186 27.0738 58.9083 25.9615 57.431 26.3322C56.4623 26.5754 56.4826 26.2533 57.5061 25.1415C58.3607 24.2131 58.1304 24.355 54.2081 27.1732C53.1603 27.926 52.7939 27.5718 53.4457 26.4361C53.7238 25.9515 53.882 25.555 53.7972 25.555C53.7124 25.555 53.0196 26.0311 52.2576 26.6129C50.6067 27.8734 49.8514 27.6146 50.9287 26.1574C51.2957 25.661 51.5223 25.2549 51.4323 25.2549C51.3423 25.2549 50.5189 25.6781 49.6024 26.1953C47.6678 27.2871 46.9624 27.062 48.037 25.6959C48.7847 24.7453 48.5073 24.8592 46.4351 26.3532C45.6701 26.9047 44.8935 27.356 44.7092 27.356C44.1896 27.356 44.3129 26.6144 44.9719 25.7767C45.5135 25.0881 45.5229 24.999 45.0718 24.8259C44.4042 24.5697 44.8731 24.1706 46.1615 23.8985L47.1984 23.6794L46.6893 24.3921C45.5251 26.0217 45.5095 26.1816 46.5862 25.4509C47.9052 24.5559 49.4416 23.9189 49.6878 24.1651C49.7932 24.2705 49.5632 24.6934 49.1768 25.1048C48.7902 25.5162 48.5308 25.9088 48.6002 25.9772C48.6697 26.0456 49.6045 25.5861 50.6775 24.956C52.6573 23.7934 54.2272 22.1418 53.6763 21.8013C53.5127 21.7003 53.3789 21.291 53.3789 20.8918C53.3789 20.4482 53.0861 19.9742 52.6257 19.6725C51.8983 19.1959 51.7846 19.2236 49.3118 20.4774C46.8822 21.7093 46.6171 21.7763 44.1369 21.7842C41.9003 21.7914 41.2648 21.6726 39.737 20.9616L37.9513 20.1306L36.7706 21.3114L35.5898 22.4921L36.8261 23.3102C38.9328 24.7043 39.7099 24.7179 42.2236 23.404C44.3558 22.2896 45.5749 21.9684 45.5749 22.521C45.5749 23.0377 42.8799 25.7797 42.0234 26.1345C41.5472 26.3317 40.8634 26.891 40.5039 27.3773L39.8501 28.2616L41.8024 27.2989C42.8761 26.7694 43.8603 26.4491 43.9894 26.587C44.1185 26.725 44.0561 26.8979 43.8508 26.9712C43.6454 27.0446 42.4973 27.6193 41.2995 28.2483C39.3297 29.2827 38.9281 29.6606 37.0983 32.201C34.3951 35.9541 31.5968 38.8229 30.7562 38.703C29.7238 38.5558 29.7563 37.0414 30.8234 35.5683C31.7152 34.3371 35.0791 31.4387 37.3428 29.9508C38.4019 29.2547 39.2703 28.335 39.943 27.1971C40.2522 26.6739 36.8986 27.1652 34.693 27.966C31.8424 29.0012 31.0711 28.4278 32.2017 26.1139L32.5886 25.322L31.6201 25.8935C31.0874 26.2078 30.409 26.733 30.1125 27.0605C29.5484 27.684 28.1658 27.8839 28.1658 27.342C28.1658 27.1693 28.5702 26.7978 29.0644 26.5166C29.829 26.0815 30.3477 24.9547 29.7835 24.9547C29.6827 24.9547 28.7307 25.5625 27.668 26.3054C26.6053 27.0483 25.6747 27.6561 25.6001 27.6561C25.2861 27.6561 25.4998 26.5386 25.9317 25.922C26.5406 25.0527 26.3908 25.0782 24.5639 26.1553C23.724 26.6506 22.9076 27.0558 22.7498 27.0558C22.3067 27.0558 22.4093 26.3654 22.9716 25.5626C23.417 24.9267 23.1879 24.9967 21.1314 26.1254C19.2805 27.1412 18.7282 27.3288 18.5262 27.0101C18.1708 26.4493 18.1988 26.0372 18.6208 25.6151C19.2774 24.9585 18.5381 25.2416 17.2101 26.1553C15.6015 27.2621 15.4402 27.2709 15.6993 26.2385C15.9035 25.425 15.9015 25.4239 15.2745 25.9913C14.3602 26.8187 13.8209 26.1966 14.5233 25.1247C15.1589 24.1547 15.9575 23.6954 16.588 23.9374C17.1438 24.1506 17.1784 24.4728 16.7346 25.3021C16.4415 25.8497 16.5532 25.8291 17.8602 25.0943C19.234 24.3218 20.9621 22.7037 20.9621 22.1896C20.9621 22.0596 19.5611 21.9532 17.8489 21.9532H14.7358L12.3711 23.4956C11.0705 24.3439 9.21776 25.6442 8.25394 26.385L6.50151 27.732L8.1003 29.1198C12.8475 33.2406 18.7236 38.5431 18.8109 38.7849C19.0308 39.3939 18.3307 38.9612 16.7599 37.5172ZM31.8762 37.4226C32.7735 36.7383 34.6208 34.5782 36.7419 31.7332C37.888 30.1959 37.1907 30.5744 34.1758 33.126C31.8183 35.1211 30.5672 36.6743 30.5672 37.6057C30.5672 38.329 30.715 38.3083 31.8762 37.4226ZM52.3474 34.1845L53.2289 33.209L52.2534 34.0906C51.3441 34.9124 51.1399 35.16 51.3718 35.16C51.4235 35.16 51.8625 34.7211 52.3474 34.1845ZM34.4688 27.4712L35.6811 26.9861L34.4336 26.3689C33.2206 25.7688 33.1748 25.7671 32.7771 26.311C32.2363 27.0506 32.2557 27.9563 32.8122 27.9563C33.0565 27.9563 33.802 27.738 34.4688 27.4712ZM11.3217 23.4461C12.8705 22.4116 14.2013 21.3221 14.279 21.025C14.376 20.6539 14.7626 20.4564 15.515 20.3936L16.6099 20.3023L16.6806 17.6009L16.7512 14.8995L15.6651 16.1001C14.4417 17.4525 7.8374 25.3814 7.16466 26.3054C6.87894 26.6979 7.03542 26.6325 7.61665 26.1165C8.10558 25.6824 9.77288 24.4807 11.3217 23.4461ZM20.3618 25.374C21.0547 24.6017 21.0145 24.613 19.8366 25.5218C19.1349 26.0631 18.5609 26.5669 18.5609 26.6414C18.5609 26.9336 19.6506 26.1668 20.3618 25.374ZM30.5404 23.7541C30.8005 23.7541 30.8545 24.0295 30.7172 24.6546C30.5038 25.6263 30.751 25.7757 31.5751 25.173C32.0575 24.8204 32.0127 24.6823 30.992 23.3721C30.384 22.5917 29.8431 21.9532 29.7901 21.9532C29.737 21.9532 28.8671 23.039 27.8569 24.3661L26.02 26.779L28.093 25.2666C29.2331 24.4347 30.3344 23.7541 30.5404 23.7541ZM28.0909 22.9201C28.7925 22.1497 29.3665 21.4192 29.3665 21.2967C29.3665 20.9874 26.6842 16.5975 26.3805 16.4099C26.2446 16.3259 25.4448 17.2011 24.603 18.3548C23.7612 19.5085 23.2149 20.4524 23.3889 20.4524C23.5629 20.4524 23.6621 20.7554 23.6094 21.1258C23.5452 21.5769 23.2538 21.8494 22.727 21.9512C22.2944 22.0348 21.5515 22.5691 21.0761 23.1385C20.5379 23.7832 20.3961 24.1035 20.7005 23.9874C21.3073 23.756 21.8728 24.2787 21.6484 24.8636C21.5235 25.1889 21.7761 25.1415 22.6429 24.677C23.7886 24.0629 24.564 23.8837 24.564 24.233C24.564 24.3314 24.2632 24.8344 23.8954 25.3508L23.2268 26.2897L25.021 25.3053C26.0078 24.7639 27.3893 23.6905 28.0909 22.9201ZM25.9147 21.9532C26.0168 21.7881 26.1598 21.653 26.2326 21.653C26.3054 21.653 26.365 21.7881 26.365 21.9532C26.365 22.1182 26.2219 22.2533 26.0471 22.2533C25.8723 22.2533 25.8127 22.1182 25.9147 21.9532ZM37.713 25.4055C35.8552 24.7226 34.8278 23.7541 31.9807 20.0021C28.5774 15.5173 26.4126 12.9916 25.6226 12.5841C25.1345 12.3324 25.171 12.4412 25.8071 13.1347C26.2432 13.6101 27.6409 15.6874 28.913 17.751C31.4284 21.8313 32.9296 23.8183 34.0528 24.5543C35.1101 25.247 36.8905 25.83 37.921 25.8209L38.8214 25.8129L37.713 25.4055ZM15.8978 24.7296C16.2711 24.2535 16.2605 24.2429 15.7845 24.6163C15.4955 24.8429 15.2592 25.0792 15.2592 25.1416C15.2592 25.3886 15.5057 25.2296 15.8978 24.7296ZM36.7188 19.1969C36.3234 18.8859 35.5653 17.9607 35.0341 17.141C34.5029 16.3212 34.0416 15.6841 34.009 15.7252C33.9763 15.7663 33.5979 16.3648 33.1681 17.0551L32.3865 18.3102L33.7537 20.1675L35.1209 22.0247L36.2794 20.8936L37.4378 19.7624L36.7188 19.1969ZM19.7615 10.9975V1.54253L18.9361 1.54261L18.1107 1.54269V10.9976V20.4525L18.9361 20.4524L19.7615 20.4524V10.9975ZM23.9112 18.3372C24.7818 17.1739 25.5695 16.0257 25.6616 15.7857C25.857 15.2765 23.6853 12.2941 23.224 12.4381C22.6971 12.6026 20.9795 16.0497 20.9706 16.9606C20.9636 17.6749 21.0641 17.7943 21.5625 17.664C21.9093 17.5733 22.1628 17.6548 22.1628 17.8569C22.1628 18.0494 21.8926 18.3756 21.5625 18.5818C20.9772 18.9473 20.7608 19.8508 21.1623 20.2523C21.7064 20.7964 22.468 20.2658 23.9112 18.3372ZM48.2124 19.3719C50.499 18.2545 50.7168 17.791 50.6139 14.2596L50.5275 11.2976L47.4509 11.2121C44.4041 11.1274 44.3743 11.1194 44.3743 10.3866V9.64675H49.047H53.7196L53.5182 8.9714C52.727 6.31845 50.4464 3.56511 48.1435 2.48262C46.4066 1.66617 43.8644 1.36709 42.4971 1.81834C41.0196 2.30593 39.3254 4.05403 38.4258 6.01895C37.0151 9.10028 37.2845 14.271 39.0004 17.0472L39.6161 18.0435L41.4699 16.7835C45.7469 13.8766 49.5227 13.2748 48.2587 15.7015C47.8992 16.3918 44.7351 19.9085 44.2993 20.1022C43.5678 20.4273 44.3314 19.2543 46.0252 17.4508C47.0982 16.3083 47.9762 15.218 47.9762 15.028C47.9762 14.1675 44.2478 15.5861 41.4272 17.5198C40.1553 18.3917 40.1412 18.4201 40.6768 19.0212C42.1323 20.6549 45.2865 20.8016 48.2124 19.3719ZM37.4188 16.9255C35.387 12.8004 35.7034 6.97616 38.1348 3.74358C38.5908 3.13738 38.4075 3.23795 37.4963 4.09386C33.7269 7.63481 33.4701 13.3665 36.9059 17.2698C37.5748 18.0297 38.1551 18.6514 38.1955 18.6514C38.2358 18.6514 37.8863 17.8748 37.4188 16.9255ZM53.6792 14.7494V11.1475H52.7803H51.8814L51.9456 14.5871C52.0138 18.2486 51.9266 18.033 53.4541 18.3104C53.5779 18.3329 53.6792 16.7304 53.6792 14.7494ZM53.625 3.92787C53.5392 3.37676 53.4686 3.35621 52.9564 3.73343C52.3928 4.14846 52.3928 4.16753 52.9564 4.92197C53.4736 5.61432 53.5384 5.63318 53.625 5.11639C53.6778 4.80163 53.6778 4.26679 53.625 3.92787Z" fill="black"/>
</svg>
