<svg width="24" height="25" viewBox="0 0 24 25" fill="none" xmlns="http://www.w3.org/2000/svg">
<path opacity="0.4" d="M12.02 2.5C6.21 2.5 2 7.24 2 12.5C2 14.18 2.49 15.91 3.35 17.49C3.51 17.75 3.53 18.08 3.42 18.39L2.75 20.63C2.6 21.17 3.06 21.57 3.57 21.41L5.59 20.81C6.14 20.63 6.57 20.86 7.081 21.17C8.541 22.03 10.36 22.47 12 22.47C16.96 22.47 22 18.64 22 12.47C22 7.15 17.7 2.5 12.02 2.5Z" fill="#B29954"/>
<path d="M7.37036 11.2301C8.08023 11.2303 8.64966 11.8005 8.64966 12.5104C8.64958 13.2102 8.08019 13.7805 7.37036 13.7907C6.67041 13.7907 6.09017 13.2103 6.09009 12.5104C6.09009 11.8004 6.66036 11.2301 7.37036 11.2301ZM11.9807 11.2301C12.6906 11.2302 13.26 11.8005 13.26 12.5104C13.2599 13.2102 12.6906 13.7905 11.9807 13.7907C11.2708 13.7807 10.7006 13.2104 10.7004 12.5006C10.7004 11.8006 11.2807 11.2201 11.9807 11.2301ZM16.5901 11.2301C17.3001 11.2301 17.8704 11.8004 17.8704 12.5104C17.8703 13.2103 17.3 13.7907 16.5901 13.7907C15.8802 13.7905 15.3099 13.2103 15.3098 12.5104C15.3098 11.8004 15.8802 11.2302 16.5901 11.2301Z" fill="#B29954"/>
</svg>
