<svg width="31" height="30" viewBox="0 0 31 30" fill="none" xmlns="http://www.w3.org/2000/svg">
<path d="M14.5918 0.96875C14.9492 0.193878 16.0508 0.193878 16.4082 0.96875L20.2031 9.19629C20.3488 9.5119 20.6479 9.72956 20.9932 9.77051L29.9902 10.8369C30.8376 10.9374 31.1783 11.9851 30.5518 12.5645L23.8994 18.7158C23.6444 18.9519 23.53 19.3036 23.5977 19.6445L25.3633 28.5312C25.5296 29.3682 24.6391 30.0154 23.8945 29.5986L15.9883 25.1738C15.6848 25.004 15.3152 25.004 15.0117 25.1738L7.10547 29.5986C6.36086 30.0154 5.47041 29.3682 5.63672 28.5312L7.40234 19.6445C7.46998 19.3036 7.35565 18.9519 7.10059 18.7158L0.448242 12.5645C-0.178258 11.9851 0.162372 10.9374 1.00977 10.8369L10.0068 9.77051C10.3521 9.72956 10.6512 9.5119 10.7969 9.19629L14.5918 0.96875Z" fill="#CC0D39"/>
<path d="M14.5918 0.96875C14.9492 0.193878 16.0508 0.193878 16.4082 0.96875L20.2031 9.19629C20.3488 9.5119 20.6479 9.72956 20.9932 9.77051L29.9902 10.8369C30.8376 10.9374 31.1783 11.9851 30.5518 12.5645L23.8994 18.7158C23.6444 18.9519 23.53 19.3036 23.5977 19.6445L25.3633 28.5312C25.5296 29.3682 24.6391 30.0154 23.8945 29.5986L15.9883 25.1738C15.6848 25.004 15.3152 25.004 15.0117 25.1738L7.10547 29.5986C6.36086 30.0154 5.47041 29.3682 5.63672 28.5312L7.40234 19.6445C7.46998 19.3036 7.35565 18.9519 7.10059 18.7158L0.448242 12.5645C-0.178258 11.9851 0.162372 10.9374 1.00977 10.8369L10.0068 9.77051C10.3521 9.72956 10.6512 9.5119 10.7969 9.19629L14.5918 0.96875Z" stroke="#FFB444"/>
</svg>
