<svg width="14" height="14" viewBox="0 0 14 14" fill="none" xmlns="http://www.w3.org/2000/svg">
<g clip-path="url(#clip0_29249_777)">
<path d="M2.50183 3.80005H3.58324H12.2345" stroke="#CC0D39" stroke-width="1.21659" stroke-linecap="round" stroke-linejoin="round"/>
<path d="M11.1533 3.79979V11.3697C11.1533 11.6565 11.0393 11.9316 10.8365 12.1344C10.6337 12.3372 10.3587 12.4511 10.0719 12.4511H4.66479C4.37798 12.4511 4.10292 12.3372 3.90011 12.1344C3.69731 11.9316 3.58337 11.6565 3.58337 11.3697V3.79979M5.20549 3.79979V2.71838C5.20549 2.43157 5.31943 2.15651 5.52223 1.9537C5.72504 1.7509 6.0001 1.63696 6.28691 1.63696H8.44973C8.73654 1.63696 9.0116 1.7509 9.21441 1.9537C9.41721 2.15651 9.53115 2.43157 9.53115 2.71838V3.79979" stroke="#CC0D39" stroke-width="1.21659" stroke-linecap="round" stroke-linejoin="round"/>
<path d="M6.28674 6.50342V9.74766" stroke="#CC0D39" stroke-width="1.21659" stroke-linecap="round" stroke-linejoin="round"/>
<path d="M8.44971 6.50342V9.74766" stroke="#CC0D39" stroke-width="1.21659" stroke-linecap="round" stroke-linejoin="round"/>
</g>
<defs>
<clipPath id="clip0_29249_777">
<rect width="12.977" height="12.977" fill="white" transform="translate(0.879761 0.555664)"/>
</clipPath>
</defs>
</svg>
