<svg width="21" height="21" viewBox="0 0 21 21" fill="none" xmlns="http://www.w3.org/2000/svg">
<path opacity="0.4" d="M5.98853 17.7872C6.8354 17.7872 7.52937 18.481 7.52954 19.338C7.52954 20.185 6.8355 20.879 5.98853 20.879C5.13149 20.8789 4.43774 20.1849 4.43774 19.338C4.43791 18.4811 5.13159 17.7874 5.98853 17.7872ZM17.469 17.7872C18.3159 17.7872 19.0098 18.481 19.01 19.338C19.01 20.185 18.316 20.879 17.469 20.879C16.6118 20.879 15.9182 20.185 15.9182 19.338C15.9184 18.481 16.6119 17.7872 17.469 17.7872Z" fill="#B29954"/>
<path fill-rule="evenodd" clip-rule="evenodd" d="M19.0101 4.80758C19.6326 4.80758 20.0408 5.02188 20.4489 5.49129C20.8571 5.9607 20.9285 6.6342 20.8367 7.24545L19.8673 13.9396C19.6836 15.2264 18.5815 16.1744 17.2855 16.1744H6.15237C4.79516 16.1744 3.67266 15.1336 3.56041 13.7876L2.62159 2.66361L1.0807 2.39829C0.672523 2.32686 0.386796 1.92888 0.458227 1.5207C0.529659 1.10231 0.927637 0.82679 1.34602 0.888017L3.77981 1.25538C4.12676 1.31763 4.38188 1.60234 4.41249 1.94929L4.60638 4.23511C4.63699 4.56268 4.90231 4.80758 5.22885 4.80758H19.0101ZM12.8261 10.1129H15.6528C16.0814 10.1129 16.4181 9.76597 16.4181 9.34759C16.4181 8.919 16.0814 8.58225 15.6528 8.58225H12.8261C12.3976 8.58225 12.0608 8.919 12.0608 9.34759C12.0608 9.76597 12.3976 10.1129 12.8261 10.1129Z" fill="#B29954"/>
</svg>
