<svg width="19" height="21" viewBox="0 0 19 21" fill="none" xmlns="http://www.w3.org/2000/svg">
<path opacity="0.4" d="M13.9576 0.125732H5.5766C2.5366 0.125732 0.766602 1.90573 0.766602 4.95573V15.2857C0.766602 18.3857 2.5366 20.1257 5.5766 20.1257H13.9576C17.0466 20.1257 18.7666 18.3857 18.7666 15.2857V4.95573C18.7666 1.90573 17.0466 0.125732 13.9576 0.125732Z" fill="#B29954"/>
<path d="M5.84668 13.8656H13.6865C14.0855 13.9056 14.3867 14.2457 14.3867 14.6556C14.3867 15.0546 14.0855 15.3959 13.6865 15.4359H5.84668C5.54668 15.4759 5.25668 15.3256 5.09668 15.0756C4.93673 14.8156 4.9367 14.4857 5.09668 14.2357C5.25669 13.9758 5.54671 13.8356 5.84668 13.8656ZM13.6865 9.30505C14.1164 9.30505 14.4666 9.65552 14.4668 10.0853C14.4668 10.5153 14.1165 10.8656 13.6865 10.8656H5.84668C5.41568 10.8656 5.06641 10.5153 5.06641 10.0853C5.06664 9.65552 5.41582 9.30505 5.84668 9.30505H13.6865ZM8.83594 4.77576C9.26677 4.77596 9.61621 5.12618 9.61621 5.55505C9.61605 5.99579 9.26667 6.34587 8.83594 6.34607H5.84668C5.41569 6.34607 5.06643 5.99578 5.06641 5.5658C5.06641 5.1358 5.41568 4.78552 5.84668 4.78552V4.77576H8.83594Z" fill="#B29954"/>
</svg>
