<svg width="22" height="21" viewBox="0 0 22 21" fill="none" xmlns="http://www.w3.org/2000/svg">
<path opacity="0.4" d="M10.4992 19.8654C8.09604 18.381 5.86204 16.6308 3.83811 14.6466C2.40928 13.2299 1.31808 11.5001 0.647871 9.58941C-0.549636 5.86306 0.844338 1.60437 4.73624 0.340074C6.79046 -0.305047 9.02459 0.0909774 10.7425 1.40475C12.461 0.0924467 14.6944 -0.303449 16.7487 0.340074C20.6406 1.60437 22.044 5.86306 20.8465 9.58941C20.1817 11.4983 19.097 13.228 17.6749 14.6466C15.6492 16.6286 13.4154 18.3787 11.0138 19.8654L10.7518 20.0365L10.4992 19.8654Z" fill="#B29954"/>
<path d="M10.7465 20.0364L10.4993 19.8653C8.09309 18.3811 5.85597 16.6309 3.82876 14.6465C2.39316 13.2318 1.29546 11.5019 0.619813 9.58936C-0.568339 5.86301 0.825635 1.60432 4.71753 0.340024C6.77175 -0.305098 9.03535 0.0912302 10.7465 1.416V20.0364Z" fill="#B29954"/>
<path d="M17.2934 7.40405C17.0819 7.39043 16.885 7.28475 16.7488 7.11177C16.6125 6.93879 16.5489 6.71371 16.5728 6.48924C16.5957 5.74992 16.175 5.07697 15.5263 4.81515C15.115 4.70285 14.8658 4.25735 14.9687 3.81801C15.0664 3.38572 15.4712 3.11694 15.878 3.21423C15.9294 3.22276 15.9788 3.24137 16.0238 3.26912C17.3246 3.76968 18.1667 5.11687 18.0997 6.58987C18.0976 6.81313 18.0106 7.02589 17.8585 7.1794C17.7065 7.3329 17.5025 7.41398 17.2934 7.40405Z" fill="#B29954"/>
</svg>
